<?xml version="1.0" encoding="UTF-8" standalone="no"?>
<!DOCTYPE svg PUBLIC "-//W3C//DTD SVG 1.1//EN" "http://www.w3.org/Graphics/SVG/1.1/DTD/svg11.dtd">
<svg width="100%" height="100%" viewBox="0 0 738 1016" version="1.1" xmlns="http://www.w3.org/2000/svg" xmlns:xlink="http://www.w3.org/1999/xlink" xml:space="preserve" xmlns:serif="http://www.serif.com/" style="fill-rule:evenodd;clip-rule:evenodd;stroke-linejoin:round;stroke-miterlimit:2;">
    <g transform="matrix(1,0,0,1,-3052.82,-366.142)">
        <g transform="matrix(1,0,0,1,113.004,0)">
            <g transform="matrix(0.455522,0,0,0.455522,2690.55,426.44)">
                <path d="M547.2,1487.37L547.2,-132.372L2166.94,-132.372L2166.94,1487.37L547.2,1487.37ZM1129.8,-68.343L1129.8,386.2L1584.34,386.2L1584.34,-68.343L1129.8,-68.343ZM1220.95,295.054L1220.95,340.429L1175.57,340.429L1175.57,295.054L1220.95,295.054ZM1220.95,68.179L1175.57,68.179L1175.57,22.804L1220.95,22.804L1220.95,68.179ZM1220.95,22.804L1220.95,-22.571L1266.32,-22.571L1266.32,22.804L1220.95,22.804ZM1266.32,22.804L1311.7,22.804L1311.7,68.179L1266.32,68.179L1266.32,22.804ZM1311.7,22.804L1311.7,-22.571L1357.07,-22.571L1357.07,22.804L1311.7,22.804ZM1357.07,22.804L1402.45,22.804L1402.45,68.179L1357.07,68.179L1357.07,22.804ZM1402.45,22.804L1402.45,-22.571L1447.82,-22.571L1447.82,22.804L1402.45,22.804ZM1447.82,22.804L1493.2,22.804L1493.2,68.179L1447.82,68.179L1447.82,22.804ZM1493.2,68.179L1538.57,68.179L1538.57,113.554L1493.2,113.554L1493.2,68.179ZM1493.2,113.554L1493.2,158.929L1447.82,158.929L1447.82,113.554L1493.2,113.554ZM1493.2,158.929L1538.57,158.929L1538.57,204.304L1493.2,204.304L1493.2,158.929ZM1493.2,204.304L1493.2,249.679L1447.82,249.679L1447.82,204.304L1493.2,204.304ZM1493.2,249.679L1538.57,249.679L1538.57,295.054L1493.2,295.054L1493.2,249.679ZM1493.2,295.054L1493.2,340.429L1447.82,340.429L1447.82,295.054L1493.2,295.054ZM1447.82,295.054L1402.45,295.054L1402.45,249.679L1447.82,249.679L1447.82,295.054ZM1402.45,295.054L1402.45,340.429L1357.07,340.429L1357.07,295.054L1402.45,295.054ZM1357.07,295.054L1311.7,295.054L1311.7,249.679L1357.07,249.679L1357.07,295.054ZM1311.7,295.054L1311.7,340.429L1266.32,340.429L1266.32,295.054L1311.7,295.054ZM1266.32,295.054L1220.95,295.054L1220.95,249.679L1266.32,249.679L1266.32,295.054ZM1220.95,249.679L1175.57,249.679L1175.57,204.304L1220.95,204.304L1220.95,249.679ZM1220.95,204.304L1220.95,158.929L1266.32,158.929L1266.32,204.304L1220.95,204.304ZM1220.95,158.929L1175.57,158.929L1175.57,113.554L1220.95,113.554L1220.95,158.929ZM1220.95,113.554L1220.95,68.179L1266.32,68.179L1266.32,113.554L1220.95,113.554ZM1311.7,68.179L1357.07,68.179L1357.07,113.554L1311.7,113.554L1311.7,68.179ZM1266.32,113.554L1311.7,113.554L1311.7,158.929L1266.32,158.929L1266.32,113.554ZM1402.45,68.179L1447.82,68.179L1447.82,113.554L1402.45,113.554L1402.45,68.179ZM1357.07,113.554L1402.45,113.554L1402.45,158.929L1357.07,158.929L1357.07,113.554ZM1447.82,158.929L1447.82,204.304L1402.45,204.304L1402.45,158.929L1447.82,158.929ZM1402.45,204.304L1402.45,249.679L1357.07,249.679L1357.07,204.304L1402.45,204.304ZM1311.7,249.679L1266.32,249.679L1266.32,204.304L1311.7,204.304L1311.7,249.679ZM1357.07,204.304L1311.7,204.304L1311.7,158.929L1357.07,158.929L1357.07,204.304ZM1493.2,22.804L1493.2,-22.571L1538.57,-22.571L1538.57,22.804L1493.2,22.804ZM2102.91,450.229L1648.37,450.229L1648.37,904.771L2102.91,904.771L2102.91,450.229ZM1065.77,-68.343L611.229,-68.343L611.229,386.2L1065.77,386.2L1065.77,-68.343ZM657,69.333L657,22.804L702.375,22.804L702.375,-22.571L747.75,-22.571L747.75,22.804L793.125,22.804L793.125,-22.571L838.5,-22.571L838.5,22.804L883.875,22.804L883.875,-22.571L929.25,-22.571L929.25,22.804L974.625,22.804L974.625,-22.571L1020,-22.571L1020,23.958L974.625,23.958L974.625,68.179L1020,68.179L1020,114.708L974.625,114.708L974.625,158.929L1020,158.929L1020,205.458L974.625,205.458L974.625,249.679L1020,249.679L1020,296.208L974.625,296.208L974.625,341.583L929.25,341.583L929.25,296.208L883.875,296.208L883.875,341.583L838.5,341.583L838.5,296.208L793.125,296.208L793.125,341.583L747.75,341.583L747.75,296.208L702.375,296.208L702.375,341.583L657,341.583L657,295.054L702.375,295.054L702.375,250.833L657,250.833L657,204.304L702.375,204.304L702.375,160.083L657,160.083L657,113.554L702.375,113.554L702.375,69.333L657,69.333ZM929.25,68.179L929.25,23.958L883.875,23.958L883.875,68.179L929.25,68.179ZM974.625,113.554L974.625,69.333L929.25,69.333L929.25,113.554L974.625,113.554ZM929.25,158.929L929.25,114.708L883.875,114.708L883.875,158.929L929.25,158.929ZM974.625,204.304L974.625,160.083L929.25,160.083L929.25,204.304L974.625,204.304ZM929.25,249.679L929.25,205.458L883.875,205.458L883.875,249.679L929.25,249.679ZM974.625,295.054L974.625,250.833L929.25,250.833L929.25,295.054L974.625,295.054ZM747.75,250.833L747.75,295.054L793.125,295.054L793.125,250.833L747.75,250.833ZM702.375,205.458L702.375,249.679L747.75,249.679L747.75,205.458L702.375,205.458ZM747.75,160.083L747.75,204.304L793.125,204.304L793.125,160.083L747.75,160.083ZM702.375,114.708L702.375,158.929L747.75,158.929L747.75,114.708L702.375,114.708ZM747.75,69.333L747.75,113.554L793.125,113.554L793.125,69.333L747.75,69.333ZM702.375,23.958L702.375,68.179L747.75,68.179L747.75,23.958L702.375,23.958ZM838.5,23.958L793.125,23.958L793.125,68.179L838.5,68.179L838.5,23.958ZM838.5,295.054L883.875,295.054L883.875,250.833L838.5,250.833L838.5,295.054ZM883.875,69.333L838.5,69.333L838.5,113.554L883.875,113.554L883.875,69.333ZM838.5,158.929L838.5,114.708L793.125,114.708L793.125,158.929L838.5,158.929ZM883.875,204.304L883.875,160.083L838.5,160.083L838.5,204.304L883.875,204.304ZM838.5,249.679L838.5,205.458L793.125,205.458L793.125,249.679L838.5,249.679ZM1648.37,-68.343L1648.37,386.2L2102.91,386.2L2102.91,-68.343L1648.37,-68.343ZM1065.77,1423.34L1065.77,968.8L611.229,968.8L611.229,1423.34L1065.77,1423.34ZM974.625,1059.95L974.625,1014.57L1020,1014.57L1020,1059.95L974.625,1059.95ZM702.375,1332.2L702.375,1377.57L657,1377.57L657,1332.2L702.375,1332.2ZM702.375,1105.32L657,1105.32L657,1059.95L702.375,1059.95L702.375,1105.32ZM702.375,1059.95L702.375,1014.57L747.75,1014.57L747.75,1059.95L702.375,1059.95ZM747.75,1059.95L793.125,1059.95L793.125,1105.32L747.75,1105.32L747.75,1059.95ZM793.125,1059.95L793.125,1014.57L838.5,1014.57L838.5,1059.95L793.125,1059.95ZM838.5,1059.95L883.875,1059.95L883.875,1105.32L838.5,1105.32L838.5,1059.95ZM883.875,1059.95L883.875,1014.57L929.25,1014.57L929.25,1059.95L883.875,1059.95ZM929.25,1059.95L974.625,1059.95L974.625,1105.32L929.25,1105.32L929.25,1059.95ZM974.625,1105.32L1020,1105.32L1020,1150.7L974.625,1150.7L974.625,1105.32ZM974.625,1150.7L974.625,1196.07L929.25,1196.07L929.25,1150.7L974.625,1150.7ZM974.625,1196.07L1020,1196.07L1020,1241.45L974.625,1241.45L974.625,1196.07ZM974.625,1241.45L974.625,1286.82L929.25,1286.82L929.25,1241.45L974.625,1241.45ZM974.625,1286.82L1020,1286.82L1020,1332.2L974.625,1332.2L974.625,1286.82ZM974.625,1332.2L974.625,1377.57L929.25,1377.57L929.25,1332.2L974.625,1332.2ZM929.25,1332.2L883.875,1332.2L883.875,1286.82L929.25,1286.82L929.25,1332.2ZM883.875,1332.2L883.875,1377.57L838.5,1377.57L838.5,1332.2L883.875,1332.2ZM838.5,1332.2L793.125,1332.2L793.125,1286.82L838.5,1286.82L838.5,1332.2ZM793.125,1332.2L793.125,1377.57L747.75,1377.57L747.75,1332.2L793.125,1332.2ZM747.75,1332.2L702.375,1332.2L702.375,1286.82L747.75,1286.82L747.75,1332.2ZM702.375,1286.82L657,1286.82L657,1241.45L702.375,1241.45L702.375,1286.82ZM702.375,1241.45L702.375,1196.07L747.75,1196.07L747.75,1241.45L702.375,1241.45ZM702.375,1196.07L657,1196.07L657,1150.7L702.375,1150.7L702.375,1196.07ZM702.375,1150.7L702.375,1105.32L747.75,1105.32L747.75,1150.7L702.375,1150.7ZM793.125,1105.32L838.5,1105.32L838.5,1150.7L793.125,1150.7L793.125,1105.32ZM747.75,1150.7L793.125,1150.7L793.125,1196.07L747.75,1196.07L747.75,1150.7ZM883.875,1105.32L929.25,1105.32L929.25,1150.7L883.875,1150.7L883.875,1105.32ZM838.5,1150.7L883.875,1150.7L883.875,1196.07L838.5,1196.07L838.5,1150.7ZM929.25,1196.07L929.25,1241.45L883.875,1241.45L883.875,1196.07L929.25,1196.07ZM883.875,1241.45L883.875,1286.82L838.5,1286.82L838.5,1241.45L883.875,1241.45ZM793.125,1286.82L747.75,1286.82L747.75,1241.45L793.125,1241.45L793.125,1286.82ZM838.5,1241.45L793.125,1241.45L793.125,1196.07L838.5,1196.07L838.5,1241.45ZM1584.34,450.229L1129.8,450.229L1129.8,904.771L1584.34,904.771L1584.34,450.229ZM1493.2,541.375L1493.2,496L1538.57,496L1538.57,541.375L1493.2,541.375ZM1220.95,813.625L1220.95,859L1175.57,859L1175.57,813.625L1220.95,813.625ZM1220.95,586.75L1175.57,586.75L1175.57,541.375L1220.95,541.375L1220.95,586.75ZM1220.95,541.375L1220.95,496L1266.32,496L1266.32,541.375L1220.95,541.375ZM1266.32,541.375L1311.7,541.375L1311.7,586.75L1266.32,586.75L1266.32,541.375ZM1311.7,541.375L1311.7,496L1357.07,496L1357.07,541.375L1311.7,541.375ZM1357.07,541.375L1402.45,541.375L1402.45,586.75L1357.07,586.75L1357.07,541.375ZM1402.45,541.375L1402.45,496L1447.82,496L1447.82,541.375L1402.45,541.375ZM1447.82,541.375L1493.2,541.375L1493.2,586.75L1447.82,586.75L1447.82,541.375ZM1493.2,586.75L1538.57,586.75L1538.57,632.125L1493.2,632.125L1493.2,586.75ZM1493.2,632.125L1493.2,677.5L1447.82,677.5L1447.82,632.125L1493.2,632.125ZM1493.2,677.5L1538.57,677.5L1538.57,722.875L1493.2,722.875L1493.2,677.5ZM1493.2,722.875L1493.2,768.25L1447.82,768.25L1447.82,722.875L1493.2,722.875ZM1493.2,768.25L1538.57,768.25L1538.57,813.625L1493.2,813.625L1493.2,768.25ZM1493.2,813.625L1493.2,859L1447.82,859L1447.82,813.625L1493.2,813.625ZM1447.82,813.625L1402.45,813.625L1402.45,768.25L1447.82,768.25L1447.82,813.625ZM1402.45,813.625L1402.45,859L1357.07,859L1357.07,813.625L1402.45,813.625ZM1357.07,813.625L1311.7,813.625L1311.7,768.25L1357.07,768.25L1357.07,813.625ZM1311.7,813.625L1311.7,859L1266.32,859L1266.32,813.625L1311.7,813.625ZM1266.32,813.625L1220.95,813.625L1220.95,768.25L1266.32,768.25L1266.32,813.625ZM1220.95,768.25L1175.57,768.25L1175.57,722.875L1220.95,722.875L1220.95,768.25ZM1220.95,722.875L1220.95,677.5L1266.32,677.5L1266.32,722.875L1220.95,722.875ZM1220.95,677.5L1175.57,677.5L1175.57,632.125L1220.95,632.125L1220.95,677.5ZM1220.95,632.125L1220.95,586.75L1266.32,586.75L1266.32,632.125L1220.95,632.125ZM1311.7,586.75L1357.07,586.75L1357.07,632.125L1311.7,632.125L1311.7,586.75ZM1266.32,632.125L1311.7,632.125L1311.7,677.5L1266.32,677.5L1266.32,632.125ZM1402.45,586.75L1447.82,586.75L1447.82,632.125L1402.45,632.125L1402.45,586.75ZM1357.07,632.125L1402.45,632.125L1402.45,677.5L1357.07,677.5L1357.07,632.125ZM1447.82,677.5L1447.82,722.875L1402.45,722.875L1402.45,677.5L1447.82,677.5ZM1402.45,722.875L1402.45,768.25L1357.07,768.25L1357.07,722.875L1402.45,722.875ZM1311.7,768.25L1266.32,768.25L1266.32,722.875L1311.7,722.875L1311.7,768.25ZM1357.07,722.875L1311.7,722.875L1311.7,677.5L1357.07,677.5L1357.07,722.875ZM1584.34,1423.34L1584.34,968.8L1129.8,968.8L1129.8,1423.34L1584.34,1423.34ZM611.229,904.771L1065.77,904.771L1065.77,450.229L611.229,450.229L611.229,904.771ZM1020,496L1020,859L657,859L657,496L1020,496ZM2102.91,968.8L1648.37,968.8L1648.37,1423.34L2102.91,1423.34L2102.91,968.8ZM901.64,2097.41L901.64,1815.8L901.658,1815.8C902.909,1734.47 969.327,1668.82 1050.95,1668.82C1133.36,1668.82 1200.27,1735.73 1200.27,1818.14C1200.27,1900.55 1133.36,1967.45 1050.95,1967.45C1019.26,1967.45 989.854,1957.56 965.669,1940.68L965.669,2097.41L901.64,2097.41ZM965.669,1818.14C965.669,1865.21 1003.88,1903.42 1050.95,1903.42C1098.03,1903.42 1136.24,1865.21 1136.24,1818.14C1136.24,1771.07 1098.03,1732.85 1050.95,1732.85C1003.88,1732.85 965.669,1771.07 965.669,1818.14ZM547.2,2097.41L547.2,1815.8L547.218,1815.8C548.469,1734.47 614.886,1668.82 696.515,1668.82C778.924,1668.82 845.83,1735.73 845.83,1818.14C845.83,1900.55 778.924,1967.45 696.515,1967.45C664.818,1967.45 635.414,1957.56 611.229,1940.68L611.229,2097.41L547.2,2097.41ZM611.229,1818.14C611.229,1865.21 649.444,1903.42 696.515,1903.42C743.585,1903.42 781.801,1865.21 781.801,1818.14C781.801,1771.07 743.585,1732.85 696.515,1732.85C649.444,1732.85 611.229,1771.07 611.229,1818.14ZM2166.94,1537.73L2166.94,1966.32L2102.91,1966.32L2102.91,1537.73L2166.94,1537.73ZM2019.28,1537.73L2019.28,1966.32L1955.25,1966.32L1955.25,1537.73L2019.28,1537.73ZM1395.39,1668.82C1477.8,1668.82 1544.7,1735.73 1544.7,1818.14C1544.7,1900.55 1477.8,1967.45 1395.39,1967.45C1312.98,1967.45 1246.07,1900.55 1246.07,1818.14C1246.07,1735.73 1312.98,1668.82 1395.39,1668.82ZM1395.39,1732.85C1348.32,1732.85 1310.1,1771.07 1310.1,1818.14C1310.1,1865.21 1348.32,1903.42 1395.39,1903.42C1442.46,1903.42 1480.67,1865.21 1480.67,1818.14C1480.67,1771.07 1442.46,1732.85 1395.39,1732.85ZM1744.97,1668.82C1827.38,1668.82 1894.29,1735.73 1894.29,1818.14C1894.29,1900.55 1827.38,1967.45 1744.97,1967.45C1662.56,1967.45 1595.66,1900.55 1595.66,1818.14C1595.66,1735.73 1662.56,1668.82 1744.97,1668.82ZM1744.97,1732.85C1697.9,1732.85 1659.69,1771.07 1659.69,1818.14C1659.69,1865.21 1697.9,1903.42 1744.97,1903.42C1792.04,1903.42 1830.26,1865.21 1830.26,1818.14C1830.26,1771.07 1792.04,1732.85 1744.97,1732.85Z"/>
            </g>
        </g>
    </g>
</svg>